<?xml version="1.0" encoding="UTF-8"?>
<svg width="27px" height="27px" viewBox="0 0 27 27" version="1.1" xmlns="http://www.w3.org/2000/svg" xmlns:xlink="http://www.w3.org/1999/xlink">
    <!-- Generator: Sketch 48.1 (47250) - http://www.bohemiancoding.com/sketch -->
    <title>button indicator</title>
    <desc>Created with Sketch.</desc>
    <defs></defs>
    <g id="Mobile" stroke="none" stroke-width="1" fill="none" fill-rule="evenodd" transform="translate(-119.000000, -546.000000)">
        <g id="button-indicator" transform="translate(119.000000, 546.000000)">
            <circle id="Oval-5" fill="#FFFFFF" cx="13.5" cy="13.5" r="13.5"></circle>
            <path d="M13.0757576,16.8296667 C13.1321632,16.8845 13.1981698,16.9253333 13.2677768,16.9533333 C13.3457846,16.9848333 13.4225923,17 13.5006001,17 C13.5774077,17 13.6554155,16.9848333 13.7274227,16.9568333 C13.7994299,16.9276667 13.8666367,16.8856667 13.9242424,16.8296667 L16.3244824,14.4963333 C16.5585059,14.2688333 16.5585059,13.899 16.3244824,13.6715 C16.090459,13.444 15.710021,13.444 15.4759976,13.6715 L14.1006601,15.0085 L14.1006601,10.5833333 C14.1006601,10.2613333 13.8318332,10 13.5006001,10 C13.1693669,10 12.9005401,10.2613333 12.9005401,10.5833333 L12.9005401,15.0096667 L11.5240024,13.6715 C11.289979,13.444 10.909541,13.444 10.6755176,13.6715 C10.4414941,13.899 10.4414941,14.2688333 10.6755176,14.4963333 L13.0757576,16.8296667 Z" id="Path" stroke="#000000" stroke-width="1.2" fill="#000000" transform="translate(13.500000, 13.500000) scale(-1, 1) translate(-13.500000, -13.500000) "></path>
        </g>
    </g>
</svg>