<?xml version="1.0" encoding="UTF-8"?>
<svg width="15px" height="15px" viewBox="0 0 15 15" version="1.1" xmlns="http://www.w3.org/2000/svg" xmlns:xlink="http://www.w3.org/1999/xlink">
    <!-- Generator: Sketch 48.1 (47250) - http://www.bohemiancoding.com/sketch -->
    <title>close</title>
    <desc>Created with Sketch.</desc>
    <defs></defs>
    <g id="Mobile-(Nav-expanded)" stroke="none" stroke-width="1" fill="none" fill-rule="evenodd" transform="translate(-20.000000, -85.000000)">
        <path d="M27.5,91.2884826 L32.5375691,86.2509135 C32.8721204,85.9163622 33.4145352,85.9163622 33.7490865,86.2509135 C34.0836378,86.5854648 34.0836378,87.1278796 33.7490865,87.4624309 L28.7115174,92.5 L33.7490865,97.5375691 C34.0836378,97.8721204 34.0836378,98.4145352 33.7490865,98.7490865 C33.4145352,99.0836378 32.8721204,99.0836378 32.5375691,98.7490865 L27.5,93.7115174 L22.4624309,98.7490865 C22.1278796,99.0836378 21.5854648,99.0836378 21.2509135,98.7490865 C20.9163622,98.4145352 20.9163622,97.8721204 21.2509135,97.5375691 L26.2884826,92.5 L21.2509135,87.4624309 C20.9163622,87.1278796 20.9163622,86.5854648 21.2509135,86.2509135 C21.5854648,85.9163622 22.1278796,85.9163622 22.4624309,86.2509135 L27.5,91.2884826 Z" id="close" stroke="#000000" stroke-width="0.8" fill="#000000" fill-rule="nonzero"></path>
    </g>
</svg>