<?xml version="1.0" encoding="UTF-8"?>
<svg width="28px" height="28px" viewBox="0 0 28 28" version="1.1" xmlns="http://www.w3.org/2000/svg" xmlns:xlink="http://www.w3.org/1999/xlink">
    <!-- Generator: Sketch 48.1 (47250) - http://www.bohemiancoding.com/sketch -->
    <title>Facebook</title>
    <desc>Created with Sketch.</desc>
    <defs></defs>
    <g id="Mobile" stroke="none" stroke-width="1" fill="none" fill-rule="evenodd" transform="translate(-279.000000, -1043.000000)">
        <path d="M293.955707,1071 L280.545385,1071 C279.691642,1071 279,1070.30793 279,1069.45452 L279,1044.54537 C279,1043.69175 279.691751,1043 280.545385,1043 L305.454724,1043 C306.30814,1043 307,1043.69175 307,1044.54537 L307,1069.45452 C307,1070.30804 306.308032,1071 305.454724,1071 L298.319595,1071 L298.319595,1060.15686 L301.959137,1060.15686 L302.504107,1055.93109 L298.319595,1055.93109 L298.319595,1053.23321 C298.319595,1052.00975 298.659332,1051.17601 300.413752,1051.17601 L302.651432,1051.17503 L302.651432,1047.39547 C302.264433,1047.34397 300.936124,1047.22892 299.390739,1047.22892 C296.164487,1047.22892 293.955707,1049.19822 293.955707,1052.81471 L293.955707,1055.93109 L290.306821,1055.93109 L290.306821,1060.15686 L293.955707,1060.15686 L293.955707,1071 L293.955707,1071 Z" id="Facebook" fill="#FFFFFF"></path>
    </g>
</svg>