<?xml version="1.0" encoding="UTF-8"?>
<svg width="30px" height="30px" viewBox="0 0 30 30" version="1.1" xmlns="http://www.w3.org/2000/svg" xmlns:xlink="http://www.w3.org/1999/xlink">
    <!-- Generator: Sketch 48.1 (47250) - http://www.bohemiancoding.com/sketch -->
    <title>Instagram</title>
    <desc>Created with Sketch.</desc>
    <defs></defs>
    <g id="Mobile" stroke="none" stroke-width="1" fill="none" fill-rule="evenodd" transform="translate(-139.000000, -1042.000000)">
        <path d="M154.00003,1042 C158.073755,1042 158.584571,1042.01727 160.184481,1042.09027 C161.781056,1042.16309 162.871459,1042.41668 163.82557,1042.78751 C164.811953,1043.17079 165.648466,1043.68369 166.48242,1044.51758 C167.316314,1045.35153 167.829214,1046.18805 168.212549,1047.17443 C168.583321,1048.12854 168.836913,1049.21894 168.909733,1050.81552 C168.982733,1052.41543 169,1052.92624 169,1057.00003 C169,1061.07376 168.982733,1061.58457 168.909733,1063.18448 C168.836913,1064.78106 168.583321,1065.87146 168.212549,1066.82557 C167.829214,1067.81195 167.316314,1068.64847 166.48242,1069.48242 C165.648466,1070.31631 164.811953,1070.82921 163.82557,1071.21255 C162.871459,1071.58332 161.781056,1071.83691 160.184481,1071.90973 C158.584571,1071.98273 158.073755,1072 154.00003,1072 C149.926245,1072 149.415429,1071.98273 147.815519,1071.90973 C146.218944,1071.83691 145.128541,1071.58332 144.17443,1071.21255 C143.188047,1070.82921 142.351534,1070.31631 141.51758,1069.48242 C140.683686,1068.64847 140.170786,1067.81195 139.78751,1066.82557 C139.416679,1065.87146 139.163087,1064.78106 139.090267,1063.18448 C139.017267,1061.58457 139,1061.07376 139,1057.00003 C139,1052.92624 139.017267,1052.41543 139.090267,1050.81552 C139.163087,1049.21894 139.416679,1048.12854 139.78751,1047.17443 C140.170786,1046.18805 140.683686,1045.35153 141.51758,1044.51758 C142.351534,1043.68369 143.188047,1043.17079 144.17443,1042.78751 C145.128541,1042.41668 146.218944,1042.16309 147.815519,1042.09027 C149.415429,1042.01727 149.926245,1042 154.00003,1042 Z M154.00003,1044.7027 C149.994838,1044.7027 149.520402,1044.718 147.938713,1044.79017 C146.476228,1044.85685 145.681989,1045.10122 145.153429,1045.30664 C144.453268,1045.57875 143.953587,1045.90379 143.428719,1046.42872 C142.903791,1046.95359 142.578748,1047.45327 142.306638,1048.15343 C142.101216,1048.68199 141.856854,1049.47623 141.790166,1050.93871 C141.718,1052.5204 141.702698,1052.99484 141.702698,1057.00003 C141.702698,1061.00516 141.718,1061.4796 141.790166,1063.06129 C141.856854,1064.52377 142.101216,1065.31801 142.306638,1065.84657 C142.578748,1066.54673 142.903851,1067.04641 143.428719,1067.57128 C143.953587,1068.09621 144.453268,1068.42125 145.153429,1068.69336 C145.681989,1068.89878 146.476228,1069.14315 147.938713,1069.20983 C149.520224,1069.282 149.99454,1069.2973 154.00003,1069.2973 C158.00546,1069.2973 158.479836,1069.282 160.061287,1069.20983 C161.523772,1069.14315 162.318011,1068.89878 162.846571,1068.69336 C163.546732,1068.42125 164.046413,1068.09621 164.571281,1067.57128 C165.096209,1067.04641 165.421252,1066.54673 165.693362,1065.84657 C165.898784,1065.31801 166.143146,1064.52377 166.209834,1063.06129 C166.282,1061.4796 166.297302,1061.00516 166.297302,1057.00003 C166.297302,1052.99484 166.282,1052.5204 166.209834,1050.93871 C166.143146,1049.47623 165.898784,1048.68199 165.693362,1048.15343 C165.421252,1047.45327 165.096209,1046.95359 164.571281,1046.42872 C164.046413,1045.90379 163.546732,1045.57875 162.846571,1045.30664 C162.318011,1045.10122 161.523772,1044.85685 160.061287,1044.79017 C158.479598,1044.718 158.005162,1044.7027 154.00003,1044.7027 Z M154.00003,1049.2973 C158.25411,1049.2973 161.702698,1052.74589 161.702698,1057.00003 C161.702698,1061.25411 158.25411,1064.7027 154.00003,1064.7027 C149.74589,1064.7027 146.297302,1061.25411 146.297302,1057.00003 C146.297302,1052.74589 149.74589,1049.2973 154.00003,1049.2973 Z M154.00003,1062 C156.761437,1062 159,1059.76144 159,1057.00003 C159,1054.23856 156.761437,1052 154.00003,1052 C151.238563,1052 149,1054.23856 149,1057.00003 C149,1059.76144 151.238563,1062 154.00003,1062 Z M163.807052,1048.99298 C163.807052,1049.9871 163.001143,1050.79295 162.00702,1050.79295 C161.012956,1050.79295 160.207047,1049.9871 160.207047,1048.99298 C160.207047,1047.99886 161.012956,1047.19295 162.00702,1047.19295 C163.001143,1047.19295 163.807052,1047.99886 163.807052,1048.99298 Z" id="Instagram" fill="#FFFFFF"></path>
    </g>
</svg>