<?xml version="1.0" encoding="UTF-8"?>
<svg width="30px" height="28px" viewBox="0 0 30 28" version="1.1" xmlns="http://www.w3.org/2000/svg" xmlns:xlink="http://www.w3.org/1999/xlink">
    <!-- Generator: Sketch 48.1 (47250) - http://www.bohemiancoding.com/sketch -->
    <title>Snapchat</title>
    <desc>Created with Sketch.</desc>
    <defs></defs>
    <g id="Mobile" stroke="none" stroke-width="1" fill="none" fill-rule="evenodd" transform="translate(-209.000000, -1043.000000)">
        <path d="M224.28845,1043 L224.287128,1043 C224.261239,1043 224.236904,1043 224.213736,1043.00031 C224.02901,1043.00216 223.725332,1043.00509 223.698043,1043.0054 C223.032067,1043.0054 221.69957,1043.09879 220.268257,1043.72592 C219.449897,1044.08425 218.713794,1044.56876 218.080471,1045.16602 C217.325397,1045.87766 216.710267,1046.75508 216.252495,1047.77426 C215.582087,1049.26654 215.741234,1051.78008 215.86905,1053.80001 L215.869516,1053.80318 C215.883199,1054.0195 215.897583,1054.24539 215.910722,1054.4655 C215.812372,1054.51034 215.652914,1054.55765 215.417887,1054.55765 C215.039728,1054.55765 214.590042,1054.43764 214.081658,1054.20117 C213.932074,1054.13202 213.761342,1054.09706 213.572963,1054.09706 C213.270295,1054.09706 212.951224,1054.18551 212.674446,1054.34704 C212.32622,1054.55001 212.101222,1054.83687 212.040113,1055.15491 C211.99984,1055.3653 212.001784,1055.78112 212.467097,1056.20281 C212.723038,1056.43496 213.09902,1056.64904 213.584314,1056.83944 C213.711662,1056.88921 213.862801,1056.93675 214.022881,1056.98715 C214.57838,1057.16242 215.419131,1057.42721 215.638376,1057.93943 C215.749475,1058.19912 215.701661,1058.54086 215.496644,1058.9539 C215.491279,1058.96517 215.485915,1058.97621 215.481017,1058.98778 C215.429782,1059.10656 214.951797,1060.18131 213.971336,1061.3148 C213.414204,1061.95937 212.800551,1062.49806 212.148414,1062.91635 C211.352445,1063.42703 210.49117,1063.76089 209.588766,1063.90845 C209.234398,1063.96618 208.981333,1064.27959 209.00108,1064.63576 C209.007145,1064.7384 209.031401,1064.84074 209.073462,1064.93975 C209.073773,1064.94037 209.074162,1064.94099 209.074473,1064.94153 C209.21776,1065.27423 209.549971,1065.55685 210.090075,1065.80613 C210.750065,1066.11044 211.737135,1066.36643 213.023606,1066.5667 C213.088602,1066.68941 213.156086,1066.99781 213.202812,1067.20896 C213.251714,1067.43339 213.302716,1067.66414 213.375409,1067.90925 C213.453855,1068.17482 213.657318,1068.49217 214.180007,1068.49217 C214.378105,1068.49217 214.605902,1068.44787 214.869696,1068.39708 C215.256019,1068.32184 215.784306,1068.21919 216.443674,1068.21919 C216.809238,1068.21919 217.188096,1068.25114 217.569443,1068.31404 C218.304536,1068.43552 218.938248,1068.8799 219.671475,1069.39451 C220.744687,1070.14759 221.959476,1071 223.815518,1071 C223.866131,1071 223.9169,1070.99838 223.967046,1070.99491 C224.028388,1070.99776 224.104424,1071 224.184658,1071 C226.041245,1071 227.255722,1070.14728 228.327769,1069.39482 L228.329479,1069.39327 C229.062862,1068.87928 229.695874,1068.43552 230.430734,1068.31404 C230.811925,1068.25122 231.190705,1068.21919 231.556425,1068.21919 C232.186327,1068.21919 232.685071,1068.29892 233.130403,1068.38512 C233.421019,1068.44192 233.646872,1068.46924 233.820169,1068.46924 L233.837118,1068.46955 L233.854689,1068.46955 C234.236968,1068.46955 234.517866,1068.26125 234.625079,1067.89675 C234.696295,1067.65681 234.747141,1067.43146 234.797287,1067.20325 C234.840981,1067.00537 234.910797,1066.68818 234.975793,1066.56415 C236.26312,1066.3635 237.2498,1066.10804 237.909868,1065.80382 C238.448729,1065.55569 238.780551,1065.27339 238.924693,1064.94207 C238.96792,1064.84274 238.993187,1064.73979 238.998863,1064.63498 C239.019155,1064.27944 238.765701,1063.96541 238.411099,1063.90768 C234.400547,1063.25153 232.593796,1059.16089 232.519082,1058.98709 C232.514262,1058.97567 232.508819,1058.96432 232.503144,1058.95329 C232.298126,1058.54009 232.250779,1058.19874 232.361956,1057.93858 C232.580735,1057.42682 233.420941,1057.16203 233.976829,1056.98684 C234.137764,1056.93652 234.289447,1056.88867 234.415785,1056.83913 C234.963043,1056.62458 235.354185,1056.39181 235.612226,1056.12749 C235.920413,1055.81238 235.980433,1055.51046 235.976701,1055.31289 C235.967294,1054.83487 235.599165,1054.41009 235.013578,1054.2021 C234.815791,1054.12091 234.590248,1054.07808 234.360585,1054.07808 C234.204237,1054.07808 233.972708,1054.09938 233.753541,1054.20094 C233.284341,1054.41889 232.864043,1054.53805 232.503222,1054.55503 C232.311343,1054.54538 232.176764,1054.50409 232.08961,1054.46465 C232.100573,1054.27819 232.112701,1054.08664 232.125218,1053.88691 L232.130427,1053.8014 C232.258942,1051.78016 232.418633,1049.26469 231.747914,1047.77133 C231.2882,1046.74852 230.670892,1045.86886 229.912786,1045.15568 C229.276976,1044.55803 228.538384,1044.0736 227.71707,1043.7155 C226.287779,1043.093 224.955359,1043 224.28845,1043" id="Snapchat" fill="#FFFFFF"></path>
    </g>
</svg>