<?xml version="1.0" encoding="UTF-8"?>
<svg width="30px" height="25px" viewBox="0 0 30 25" version="1.1" xmlns="http://www.w3.org/2000/svg" xmlns:xlink="http://www.w3.org/1999/xlink">
    <!-- Generator: Sketch 48.1 (47250) - http://www.bohemiancoding.com/sketch -->
    <title>Twitter</title>
    <desc>Created with Sketch.</desc>
    <defs></defs>
    <g id="Mobile" stroke="none" stroke-width="1" fill="none" fill-rule="evenodd" transform="translate(-69.000000, -1044.000000)">
        <path d="M99,1046.95955 C97.8976933,1047.46154 96.7108646,1047.80101 95.4659271,1047.95269 C96.7372777,1047.17263 97.7128015,1045.93572 98.1723895,1044.46226 C96.9820391,1045.18454 95.6666667,1045.71 94.2614897,1045.99169 C93.1415742,1044.76562 91.5409403,1044 89.7695017,1044 C86.3727769,1044 83.61701,1046.82593 83.61701,1050.31094 C83.61701,1050.80571 83.6698362,1051.28602 83.7754886,1051.74828 C78.6601514,1051.48465 74.1259024,1048.97472 71.0883958,1045.15204 C70.558373,1046.0874 70.2555027,1047.17263 70.2555027,1048.32828 C70.2555027,1050.51679 71.3419616,1052.4489 72.9936609,1053.58108 C71.9864413,1053.55038 71.0355696,1053.26327 70.2044374,1052.79379 L70.2044374,1052.87143 C70.2044374,1055.9303 72.3262898,1058.48176 75.1436873,1059.05959 C74.6277514,1059.20766 74.0836415,1059.28169 73.5219229,1059.28169 C73.1257264,1059.28169 72.7383342,1059.24377 72.3632682,1059.16974 C73.1468568,1061.67606 75.4183835,1063.50163 78.1125198,1063.55038 C76.0065152,1065.24413 73.3511182,1066.25352 70.4685684,1066.25352 C69.9720021,1066.25352 69.4807184,1066.22463 69,1066.16685 C71.7240711,1067.9545 74.9605564,1069 78.4347596,1069 C89.7571756,1069 95.9466455,1059.38462 95.9466455,1051.04406 C95.9466455,1050.76959 95.9413629,1050.49512 95.9307977,1050.22607 C97.1334742,1049.33586 98.1776721,1048.22535 99,1046.95955" id="Twitter" fill="#FFFFFF"></path>
    </g>
</svg>